<svg width="75" height="104" viewBox="0 0 75 104" fill="none" xmlns="http://www.w3.org/2000/svg">
<path fill-rule="evenodd" clip-rule="evenodd" d="M40.1062 104H34.95L30.225 98.2469C23.8594 90.4942 16.4812 80.5716 10.6453 70.2804C4.98281 60.2964 0 48.6578 0 37.8182C0 16.0491 15.9141 0 37.5 0C59.0859 0 75 16.0491 75 37.8182C75 48.7145 69.8625 60.3578 64.1578 70.2804C58.2703 80.5196 50.8922 90.4091 44.7656 98.124L40.1062 104ZM56.25 37.8182C56.25 42.8332 54.2746 47.6428 50.7583 51.1889C47.2419 54.7351 42.4728 56.7273 37.5 56.7273C32.5272 56.7273 27.7581 54.7351 24.2417 51.1889C20.7254 47.6428 18.75 42.8332 18.75 37.8182C18.75 32.8032 20.7254 27.9936 24.2417 24.4474C27.7581 20.9013 32.5272 18.9091 37.5 18.9091C42.4728 18.9091 47.2419 20.9013 50.7583 24.4474C54.2746 27.9936 56.25 32.8032 56.25 37.8182Z" fill="black"/>
</svg>